<?xml version="1.0" encoding="iso-8859-1"?>
<!-- Generator: Adobe Illustrator 16.0.0, SVG Export Plug-In . SVG Version: 6.00 Build 0)  -->
<!DOCTYPE svg PUBLIC "-//W3C//DTD SVG 1.1//EN" "http://www.w3.org/Graphics/SVG/1.1/DTD/svg11.dtd">
<svg version="1.1" id="Capa_1" xmlns="http://www.w3.org/2000/svg" xmlns:xlink="http://www.w3.org/1999/xlink" x="0px" y="0px"
	 width="97.82px" height="97.82px" viewBox="0 0 97.82 97.82" style="enable-background:new 0 0 97.82 97.82;" xml:space="preserve"
	>
<g>
	<path d="M72.24,97.82H25.58c-3.492,0-6.333-2.842-6.333-6.333V6.333C19.247,2.841,22.088,0,25.58,0h46.66
		c3.491,0,6.333,2.841,6.333,6.333v85.154C78.573,94.979,75.731,97.82,72.24,97.82z M25.58,1c-2.94,0-5.333,2.393-5.333,5.333
		v85.154c0,2.94,2.392,5.333,5.333,5.333h46.66c2.94,0,5.333-2.393,5.333-5.333V6.333C77.573,3.393,75.181,1,72.24,1H25.58z
		 M48.91,94.54c-1.24,0-2.25-1.01-2.25-2.25c0-1.239,1.009-2.25,2.25-2.25s2.25,1.011,2.25,2.25
		C51.16,93.53,50.15,94.54,48.91,94.54z M48.91,91.04c-0.689,0-1.25,0.562-1.25,1.25s0.561,1.25,1.25,1.25
		c0.688,0,1.25-0.562,1.25-1.25S49.599,91.04,48.91,91.04z M73.907,89.219H23.913V8.602h49.994V89.219z M24.913,88.219h47.994V9.602
		H24.913V88.219z M54.904,6.036h-9.04c-0.54,0-0.979-0.439-0.979-0.979s0.439-0.979,0.979-0.979h9.04
		c0.54,0,0.979,0.439,0.979,0.979S55.444,6.036,54.904,6.036z M45.864,4.577c-0.264,0-0.479,0.215-0.479,0.479
		s0.215,0.479,0.479,0.479h9.04c0.264,0,0.479-0.215,0.479-0.479s-0.216-0.479-0.479-0.479H45.864z M43.061,6.063
		c-0.62,0-1.125-0.505-1.125-1.125c0-0.62,0.505-1.125,1.125-1.125s1.125,0.505,1.125,1.125C44.186,5.558,43.681,6.063,43.061,6.063
		z M43.061,4.313c-0.345,0-0.625,0.28-0.625,0.625c0,0.345,0.28,0.625,0.625,0.625c0.345,0,0.625-0.28,0.625-0.625
		C43.686,4.593,43.406,4.313,43.061,4.313z"/>
</g>
<g>
</g>
<g>
</g>
<g>
</g>
<g>
</g>
<g>
</g>
<g>
</g>
<g>
</g>
<g>
</g>
<g>
</g>
<g>
</g>
<g>
</g>
<g>
</g>
<g>
</g>
<g>
</g>
<g>
</g>
</svg>
